<?xml version="1.0" standalone="no"?>
<!DOCTYPE svg PUBLIC "-//W3C//DTD SVG 20010904//EN"
 "http://www.w3.org/TR/2001/REC-SVG-20010904/DTD/svg10.dtd">
<svg version="1.0" xmlns="http://www.w3.org/2000/svg"
 width="552.000000pt" height="548.000000pt" viewBox="0 0 552.000000 548.000000"
 preserveAspectRatio="xMidYMid meet">
<metadata>
Created by potrace 1.16, written by Peter Selinger 2001-2019
</metadata>
<g transform="translate(0.000000,548.000000) scale(0.100000,-0.100000)"
fill="#4CAF7D" stroke="none">
<path d="M2402 5339 c-136 -10 -276 -35 -448 -78 -95 -24 -288 -97 -409 -155
-607 -292 -1053 -793 -1264 -1423 -136 -406 -159 -896 -60 -1293 170 -682 601
-1233 1191 -1524 396 -195 703 -207 989 -40 217 128 343 298 394 534 38 177
40 229 40 995 l-1 750 -22 45 c-54 112 -200 134 -283 44 -51 -56 -51 -63 -39
-606 19 -793 0 -1114 -76 -1273 -34 -74 -126 -156 -234 -208 -85 -42 -85 -42
-200 -42 -141 0 -203 16 -385 100 -493 228 -883 714 -1029 1282 -54 209 -72
527 -42 745 93 671 498 1247 1097 1561 333 175 691 258 1054 244 344 -13 584
-73 890 -222 600 -292 1025 -829 1194 -1505 12 -49 26 -134 42 -250 13 -92 6
-555 -10 -625 -6 -27 -18 -86 -27 -130 -35 -175 -103 -368 -195 -555 -116
-235 -257 -430 -448 -620 -505 -503 -1231 -761 -1931 -685 -325 35 -554 100
-840 237 -58 28 -123 53 -145 55 -57 6 -114 -17 -150 -61 -27 -34 -30 -45 -30
-109 0 -106 17 -125 179 -203 710 -341 1517 -373 2236 -89 869 344 1502 1101
1676 2006 64 338 57 839 -16 1094 -4 17 -11 46 -15 65 -23 116 -115 360 -202
534 -127 254 -274 458 -483 666 -330 330 -689 538 -1160 670 -229 65 -551 91
-838 69z"/>
<path d="M2548 4431 c-70 -15 -163 -69 -217 -126 -73 -78 -113 -167 -119 -268
-8 -141 29 -244 123 -339 170 -172 446 -171 615 2 149 151 168 370 49 549 -44
66 -131 135 -209 165 -51 19 -186 29 -242 17z"/>
</g>
</svg>
